<svg width="1440" height="426" viewBox="0 0 1440 426" fill="none" xmlns="http://www.w3.org/2000/svg">
<path opacity="0.5" d="M430.833 60.8749C188.527 10.0327 42.6501 15.3371 0 24.3446V206.496H1290V97.4054C1276.34 96.7382 1200.13 84.9951 1004.61 43.3605C809.086 1.72591 652.914 37.689 599.268 60.8749H430.833Z" fill="#FFA300"/>
<path opacity="0.5" d="M1029.27 45.7808C1215.38 -5.35215 1380.63 -3.48793 1440 3.8358V260H536V45.7808C622.881 67.0862 843.17 96.9138 1029.27 45.7808Z" fill="#FFA300"/>
<path d="M739 54.334C370.6 2.88135 92.8333 52.2471 0 83.3615V426H1440V83.3615C1359.83 95.1243 1107.4 105.787 739 54.334Z" fill="#FFA300"/>
</svg>
